<?xml version="1.0" encoding="UTF-8" standalone="no"?><svg xmlns="http://www.w3.org/2000/svg" xmlns:xlink="http://www.w3.org/1999/xlink" contentScriptType="application/ecmascript" contentStyleType="text/css" height="623px" preserveAspectRatio="none" style="width:903px;height:623px;" version="1.1" viewBox="0 0 903 623" width="903px" zoomAndPan="magnify"><defs><filter height="300%" id="fsznv5qojbwuq" width="300%" x="-1" y="-1"><feGaussianBlur result="blurOut" stdDeviation="2.0"/><feColorMatrix in="blurOut" result="blurOut2" type="matrix" values="0 0 0 0 0 0 0 0 0 0 0 0 0 0 0 0 0 0 .4 0"/><feOffset dx="4.0" dy="4.0" in="blurOut2" result="blurOut3"/><feBlend in="SourceGraphic" in2="blurOut3" mode="normal"/></filter></defs><g><!--cluster pkg.assets--><polygon fill="#FFFFFF" filter="url(#fsznv5qojbwuq)" points="257,340,349,340,356,362.2969,655,362.2969,655,611,257,611,257,340" style="stroke: #000000; stroke-width: 2.0;"/><line style="stroke: #000000; stroke-width: 2.0;" x1="257" x2="356" y1="362.2969" y2="362.2969"/><text fill="#000000" font-family="sans-serif" font-size="14" font-weight="bold" lengthAdjust="spacingAndGlyphs" textLength="86" x="261" y="354.9951">pkg.assets</text><!--cluster pkg.apis.kops--><polygon fill="#FFFFFF" filter="url(#fsznv5qojbwuq)" points="679,346,794,346,801,368.2969,881,368.2969,881,471,679,471,679,346" style="stroke: #000000; stroke-width: 2.0;"/><line style="stroke: #000000; stroke-width: 2.0;" x1="679" x2="801" y1="368.2969" y2="368.2969"/><text fill="#000000" font-family="sans-serif" font-size="14" font-weight="bold" lengthAdjust="spacingAndGlyphs" textLength="109" x="683" y="360.9951">pkg.apis.kops</text><!--cluster pkg.kubemanifest--><polygon fill="#FFFFFF" filter="url(#fsznv5qojbwuq)" points="93,58,240,58,247,80.2969,729,80.2969,729,316,93,316,93,58" style="stroke: #000000; stroke-width: 2.0;"/><line style="stroke: #000000; stroke-width: 2.0;" x1="93" x2="247" y1="80.2969" y2="80.2969"/><text fill="#000000" font-family="sans-serif" font-size="14" font-weight="bold" lengthAdjust="spacingAndGlyphs" textLength="141" x="97" y="72.9951">pkg.kubemanifest</text><!--class pkg.assets.AssetBuilder--><rect fill="#FEFECE" filter="url(#fsznv5qojbwuq)" height="86.4141" id="pkg.assets.AssetBuilder" style="stroke: #A80036; stroke-width: 1.5;" width="225" x="413.5" y="375"/><ellipse cx="482.75" cy="391" fill="#ADD1B2" rx="11" ry="11" style="stroke: #A80036; stroke-width: 1.0;"/><path d="M485.0938,386.6719 L485.2656,386.75 C485.4844,386.4375 485.6875,386.3438 485.9844,386.3438 C486.2813,386.3438 486.5625,386.4844 486.7188,386.75 C486.8125,386.9063 486.8281,387.0313 486.8281,387.4688 L486.8281,388.8906 C486.8281,389.3125 486.7969,389.5 486.6875,389.6563 C486.5156,389.875 486.25,390.0156 485.9844,390.0156 C485.7656,390.0156 485.5313,389.9063 485.3906,389.7656 C485.25,389.6406 485.2188,389.5156 485.1563,389.1094 C485.0625,388.7031 484.8906,388.4844 484.4063,388.2031 C483.9375,387.9531 483.3281,387.7969 482.75,387.7969 C481.0156,387.7969 479.7656,389.1094 479.7656,390.8906 L479.7656,391.9844 C479.7656,393.6875 481.0625,394.7813 483.1094,394.7813 C483.875,394.7813 484.5625,394.6563 484.9844,394.3906 C485.1719,394.2969 485.1719,394.2969 485.625,393.8125 C485.8125,393.625 486.0156,393.5469 486.2344,393.5469 C486.7031,393.5469 487.0938,393.9375 487.0938,394.3906 C487.0938,394.7813 486.7656,395.2344 486.1875,395.6406 C485.4375,396.1875 484.2813,396.4844 483.0625,396.4844 C480.1719,396.4844 478.0625,394.5938 478.0625,392.0156 L478.0625,390.8906 C478.0625,388.1719 480.0625,386.0938 482.6875,386.0938 C483.5625,386.0938 484.1563,386.2344 485.0938,386.6719 Z "/><text fill="#000000" font-family="sans-serif" font-size="12" lengthAdjust="spacingAndGlyphs" textLength="78" x="503.25" y="395.1543">AssetBuilder</text><line style="stroke: #A80036; stroke-width: 1.5;" x1="414.5" x2="637.5" y1="407" y2="407"/><ellipse cx="424.5" cy="418.9023" fill="none" rx="3" ry="3" style="stroke: #038048; stroke-width: 1.0;"/><text fill="#000000" font-family="sans-serif" font-size="11" lengthAdjust="spacingAndGlyphs" textLength="199" x="433.5" y="421.2104">ContainerAssets []*ContainerAsset</text><ellipse cx="424.5" cy="431.707" fill="none" rx="3" ry="3" style="stroke: #038048; stroke-width: 1.0;"/><text fill="#000000" font-family="sans-serif" font-size="11" lengthAdjust="spacingAndGlyphs" textLength="127" x="433.5" y="434.0151">FileAssets []*FileAsset</text><ellipse cx="424.5" cy="444.5117" fill="none" rx="3" ry="3" style="stroke: #038048; stroke-width: 1.0;"/><text fill="#000000" font-family="sans-serif" font-size="11" lengthAdjust="spacingAndGlyphs" textLength="166" x="433.5" y="446.8198">AssetsLocation *kops.Assets</text><line style="stroke: #A80036; stroke-width: 1.5;" x1="414.5" x2="637.5" y1="453.4141" y2="453.4141"/><!--class pkg.assets.ContainerAsset--><rect fill="#FEFECE" filter="url(#fsznv5qojbwuq)" height="73.6094" id="pkg.assets.ContainerAsset" style="stroke: #A80036; stroke-width: 1.5;" width="165" x="273.5" y="521"/><ellipse cx="305.15" cy="537" fill="#ADD1B2" rx="11" ry="11" style="stroke: #A80036; stroke-width: 1.0;"/><path d="M307.4938,532.6719 L307.6656,532.75 C307.8844,532.4375 308.0875,532.3438 308.3844,532.3438 C308.6813,532.3438 308.9625,532.4844 309.1188,532.75 C309.2125,532.9063 309.2281,533.0313 309.2281,533.4688 L309.2281,534.8906 C309.2281,535.3125 309.1969,535.5 309.0875,535.6563 C308.9156,535.875 308.65,536.0156 308.3844,536.0156 C308.1656,536.0156 307.9313,535.9063 307.7906,535.7656 C307.65,535.6406 307.6188,535.5156 307.5563,535.1094 C307.4625,534.7031 307.2906,534.4844 306.8063,534.2031 C306.3375,533.9531 305.7281,533.7969 305.15,533.7969 C303.4156,533.7969 302.1656,535.1094 302.1656,536.8906 L302.1656,537.9844 C302.1656,539.6875 303.4625,540.7813 305.5094,540.7813 C306.275,540.7813 306.9625,540.6563 307.3844,540.3906 C307.5719,540.2969 307.5719,540.2969 308.025,539.8125 C308.2125,539.625 308.4156,539.5469 308.6344,539.5469 C309.1031,539.5469 309.4938,539.9375 309.4938,540.3906 C309.4938,540.7813 309.1656,541.2344 308.5875,541.6406 C307.8375,542.1875 306.6813,542.4844 305.4625,542.4844 C302.5719,542.4844 300.4625,540.5938 300.4625,538.0156 L300.4625,536.8906 C300.4625,534.1719 302.4625,532.0938 305.0875,532.0938 C305.9625,532.0938 306.5563,532.2344 307.4938,532.6719 Z "/><text fill="#000000" font-family="sans-serif" font-size="12" lengthAdjust="spacingAndGlyphs" textLength="96" x="322.85" y="541.1543">ContainerAsset</text><line style="stroke: #A80036; stroke-width: 1.5;" x1="274.5" x2="437.5" y1="553" y2="553"/><ellipse cx="284.5" cy="564.9023" fill="none" rx="3" ry="3" style="stroke: #038048; stroke-width: 1.0;"/><text fill="#000000" font-family="sans-serif" font-size="11" lengthAdjust="spacingAndGlyphs" textLength="111" x="293.5" y="567.2104">DockerImage string</text><ellipse cx="284.5" cy="577.707" fill="none" rx="3" ry="3" style="stroke: #038048; stroke-width: 1.0;"/><text fill="#000000" font-family="sans-serif" font-size="11" lengthAdjust="spacingAndGlyphs" textLength="139" x="293.5" y="580.0151">CanonicalLocation string</text><line style="stroke: #A80036; stroke-width: 1.5;" x1="274.5" x2="437.5" y1="586.6094" y2="586.6094"/><!--class pkg.assets.FileAsset--><rect fill="#FEFECE" filter="url(#fsznv5qojbwuq)" height="73.6094" id="pkg.assets.FileAsset" style="stroke: #A80036; stroke-width: 1.5;" width="165" x="473.5" y="521"/><ellipse cx="523.75" cy="537" fill="#ADD1B2" rx="11" ry="11" style="stroke: #A80036; stroke-width: 1.0;"/><path d="M526.0938,532.6719 L526.2656,532.75 C526.4844,532.4375 526.6875,532.3438 526.9844,532.3438 C527.2813,532.3438 527.5625,532.4844 527.7188,532.75 C527.8125,532.9063 527.8281,533.0313 527.8281,533.4688 L527.8281,534.8906 C527.8281,535.3125 527.7969,535.5 527.6875,535.6563 C527.5156,535.875 527.25,536.0156 526.9844,536.0156 C526.7656,536.0156 526.5313,535.9063 526.3906,535.7656 C526.25,535.6406 526.2188,535.5156 526.1563,535.1094 C526.0625,534.7031 525.8906,534.4844 525.4063,534.2031 C524.9375,533.9531 524.3281,533.7969 523.75,533.7969 C522.0156,533.7969 520.7656,535.1094 520.7656,536.8906 L520.7656,537.9844 C520.7656,539.6875 522.0625,540.7813 524.1094,540.7813 C524.875,540.7813 525.5625,540.6563 525.9844,540.3906 C526.1719,540.2969 526.1719,540.2969 526.625,539.8125 C526.8125,539.625 527.0156,539.5469 527.2344,539.5469 C527.7031,539.5469 528.0938,539.9375 528.0938,540.3906 C528.0938,540.7813 527.7656,541.2344 527.1875,541.6406 C526.4375,542.1875 525.2813,542.4844 524.0625,542.4844 C521.1719,542.4844 519.0625,540.5938 519.0625,538.0156 L519.0625,536.8906 C519.0625,534.1719 521.0625,532.0938 523.6875,532.0938 C524.5625,532.0938 525.1563,532.2344 526.0938,532.6719 Z "/><text fill="#000000" font-family="sans-serif" font-size="12" lengthAdjust="spacingAndGlyphs" textLength="56" x="544.25" y="541.1543">FileAsset</text><line style="stroke: #A80036; stroke-width: 1.5;" x1="474.5" x2="637.5" y1="553" y2="553"/><ellipse cx="484.5" cy="564.9023" fill="none" rx="3" ry="3" style="stroke: #038048; stroke-width: 1.0;"/><text fill="#000000" font-family="sans-serif" font-size="11" lengthAdjust="spacingAndGlyphs" textLength="56" x="493.5" y="567.2104">File string</text><ellipse cx="484.5" cy="577.707" fill="none" rx="3" ry="3" style="stroke: #038048; stroke-width: 1.0;"/><text fill="#000000" font-family="sans-serif" font-size="11" lengthAdjust="spacingAndGlyphs" textLength="139" x="493.5" y="580.0151">CanonicalLocation string</text><line style="stroke: #A80036; stroke-width: 1.5;" x1="474.5" x2="637.5" y1="586.6094" y2="586.6094"/><!--class pkg.apis.kops.Assets--><rect fill="#FEFECE" filter="url(#fsznv5qojbwuq)" height="73.6094" id="pkg.apis.kops.Assets" style="stroke: #A80036; stroke-width: 1.5;" width="170" x="695" y="381"/><ellipse cx="754.75" cy="397" fill="#ADD1B2" rx="11" ry="11" style="stroke: #A80036; stroke-width: 1.0;"/><path d="M757.0938,392.6719 L757.2656,392.75 C757.4844,392.4375 757.6875,392.3438 757.9844,392.3438 C758.2813,392.3438 758.5625,392.4844 758.7188,392.75 C758.8125,392.9063 758.8281,393.0313 758.8281,393.4688 L758.8281,394.8906 C758.8281,395.3125 758.7969,395.5 758.6875,395.6563 C758.5156,395.875 758.25,396.0156 757.9844,396.0156 C757.7656,396.0156 757.5313,395.9063 757.3906,395.7656 C757.25,395.6406 757.2188,395.5156 757.1563,395.1094 C757.0625,394.7031 756.8906,394.4844 756.4063,394.2031 C755.9375,393.9531 755.3281,393.7969 754.75,393.7969 C753.0156,393.7969 751.7656,395.1094 751.7656,396.8906 L751.7656,397.9844 C751.7656,399.6875 753.0625,400.7813 755.1094,400.7813 C755.875,400.7813 756.5625,400.6563 756.9844,400.3906 C757.1719,400.2969 757.1719,400.2969 757.625,399.8125 C757.8125,399.625 758.0156,399.5469 758.2344,399.5469 C758.7031,399.5469 759.0938,399.9375 759.0938,400.3906 C759.0938,400.7813 758.7656,401.2344 758.1875,401.6406 C757.4375,402.1875 756.2813,402.4844 755.0625,402.4844 C752.1719,402.4844 750.0625,400.5938 750.0625,398.0156 L750.0625,396.8906 C750.0625,394.1719 752.0625,392.0938 754.6875,392.0938 C755.5625,392.0938 756.1563,392.2344 757.0938,392.6719 Z "/><text fill="#000000" font-family="sans-serif" font-size="12" lengthAdjust="spacingAndGlyphs" textLength="42" x="775.25" y="401.1543">Assets</text><line style="stroke: #A80036; stroke-width: 1.5;" x1="696" x2="864" y1="413" y2="413"/><ellipse cx="706" cy="424.9023" fill="none" rx="3" ry="3" style="stroke: #038048; stroke-width: 1.0;"/><text fill="#000000" font-family="sans-serif" font-size="11" lengthAdjust="spacingAndGlyphs" textLength="144" x="715" y="427.2104">ContainerRegistry *string</text><ellipse cx="706" cy="437.707" fill="none" rx="3" ry="3" style="stroke: #038048; stroke-width: 1.0;"/><text fill="#000000" font-family="sans-serif" font-size="11" lengthAdjust="spacingAndGlyphs" textLength="122" x="715" y="440.0151">FileRepository *string</text><line style="stroke: #A80036; stroke-width: 1.5;" x1="696" x2="864" y1="446.6094" y2="446.6094"/><!--class pkg.kubemanifest.Manifest--><rect fill="#FEFECE" filter="url(#fsznv5qojbwuq)" height="60.8047" id="pkg.kubemanifest.Manifest" style="stroke: #A80036; stroke-width: 1.5;" width="185" x="433.5" y="239"/><ellipse cx="495.25" cy="255" fill="#ADD1B2" rx="11" ry="11" style="stroke: #A80036; stroke-width: 1.0;"/><path d="M497.5938,250.6719 L497.7656,250.75 C497.9844,250.4375 498.1875,250.3438 498.4844,250.3438 C498.7813,250.3438 499.0625,250.4844 499.2188,250.75 C499.3125,250.9063 499.3281,251.0313 499.3281,251.4688 L499.3281,252.8906 C499.3281,253.3125 499.2969,253.5 499.1875,253.6563 C499.0156,253.875 498.75,254.0156 498.4844,254.0156 C498.2656,254.0156 498.0313,253.9063 497.8906,253.7656 C497.75,253.6406 497.7188,253.5156 497.6563,253.1094 C497.5625,252.7031 497.3906,252.4844 496.9063,252.2031 C496.4375,251.9531 495.8281,251.7969 495.25,251.7969 C493.5156,251.7969 492.2656,253.1094 492.2656,254.8906 L492.2656,255.9844 C492.2656,257.6875 493.5625,258.7813 495.6094,258.7813 C496.375,258.7813 497.0625,258.6563 497.4844,258.3906 C497.6719,258.2969 497.6719,258.2969 498.125,257.8125 C498.3125,257.625 498.5156,257.5469 498.7344,257.5469 C499.2031,257.5469 499.5938,257.9375 499.5938,258.3906 C499.5938,258.7813 499.2656,259.2344 498.6875,259.6406 C497.9375,260.1875 496.7813,260.4844 495.5625,260.4844 C492.6719,260.4844 490.5625,258.5938 490.5625,256.0156 L490.5625,254.8906 C490.5625,252.1719 492.5625,250.0938 495.1875,250.0938 C496.0625,250.0938 496.6563,250.2344 497.5938,250.6719 Z "/><text fill="#000000" font-family="sans-serif" font-size="12" lengthAdjust="spacingAndGlyphs" textLength="53" x="515.75" y="259.1543">Manifest</text><line style="stroke: #A80036; stroke-width: 1.5;" x1="434.5" x2="617.5" y1="271" y2="271"/><ellipse cx="444.5" cy="282.9023" fill="none" rx="3" ry="3" style="stroke: #038048; stroke-width: 1.0;"/><text fill="#000000" font-family="sans-serif" font-size="11" lengthAdjust="spacingAndGlyphs" textLength="159" x="453.5" y="285.2104">data map[string]interface{}</text><line style="stroke: #A80036; stroke-width: 1.5;" x1="434.5" x2="617.5" y1="291.8047" y2="291.8047"/><!--class pkg.kubemanifest.Visitor--><rect fill="#FEFECE" filter="url(#fsznv5qojbwuq)" height="86.4141" id="pkg.kubemanifest.Visitor" style="stroke: #A80036; stroke-width: 1.5;" width="373" x="339.5" y="93"/><ellipse cx="502.75" cy="109" fill="#B4A7E5" rx="11" ry="11" style="stroke: #A80036; stroke-width: 1.0;"/><path d="M503.7031,105.7813 L503.7031,112.2969 L505.4219,112.2969 C505.875,112.2969 506.0156,112.3281 506.1875,112.4531 C506.4219,112.625 506.5313,112.875 506.5313,113.1563 C506.5313,113.7188 506.1719,114 505.4219,114 L500.2813,114 C499.875,114 499.6719,113.9531 499.5156,113.8281 C499.2969,113.6719 499.1563,113.4063 499.1563,113.1563 C499.1563,112.8594 499.3125,112.5781 499.5625,112.4219 C499.7188,112.3125 499.8438,112.2969 500.2813,112.2969 L502,112.2969 L502,105.7813 L500.2813,105.7813 C499.8594,105.7813 499.6719,105.75 499.5156,105.6406 C499.2969,105.4688 499.1563,105.2188 499.1563,104.9375 C499.1563,104.6563 499.3125,104.3594 499.5625,104.2031 C499.7188,104.1094 499.8438,104.0938 500.2813,104.0938 L505.4219,104.0938 C505.875,104.0938 506.0156,104.125 506.1875,104.2344 C506.4219,104.4063 506.5313,104.6719 506.5313,104.9375 C506.5313,105.2344 506.3906,105.5156 506.125,105.6719 C506,105.75 505.8125,105.7813 505.4219,105.7813 Z "/><text fill="#000000" font-family="sans-serif" font-size="12" font-style="italic" lengthAdjust="spacingAndGlyphs" textLength="38" x="523.25" y="113.1543">Visitor</text><line style="stroke: #A80036; stroke-width: 1.5;" x1="340.5" x2="711.5" y1="125" y2="125"/><line style="stroke: #A80036; stroke-width: 1.5;" x1="340.5" x2="711.5" y1="133" y2="133"/><text fill="#000000" font-family="sans-serif" font-size="11" lengthAdjust="spacingAndGlyphs" textLength="315" x="345.5" y="147.2104">VisitBool(path []string, v bool, mutator func(bool)) error</text><text fill="#000000" font-family="sans-serif" font-size="11" lengthAdjust="spacingAndGlyphs" textLength="342" x="345.5" y="160.0151">VisitString(path []string, v string, mutator func(string)) error</text><text fill="#000000" font-family="sans-serif" font-size="11" lengthAdjust="spacingAndGlyphs" textLength="361" x="345.5" y="172.8198">VisitFloat64(path []string, v float64, mutator func(float64)) error</text><!--class pkg.kubemanifest.imageRemapVisitor--><rect fill="#FEFECE" filter="url(#fsznv5qojbwuq)" height="73.6094" id="pkg.kubemanifest.imageRemapVisitor" style="stroke: #A80036; stroke-width: 1.5;" width="195" x="109.5" y="99"/><ellipse cx="143.85" cy="115" fill="#ADD1B2" rx="11" ry="11" style="stroke: #A80036; stroke-width: 1.0;"/><path d="M146.1938,110.6719 L146.3656,110.75 C146.5844,110.4375 146.7875,110.3438 147.0844,110.3438 C147.3813,110.3438 147.6625,110.4844 147.8188,110.75 C147.9125,110.9063 147.9281,111.0313 147.9281,111.4688 L147.9281,112.8906 C147.9281,113.3125 147.8969,113.5 147.7875,113.6563 C147.6156,113.875 147.35,114.0156 147.0844,114.0156 C146.8656,114.0156 146.6313,113.9063 146.4906,113.7656 C146.35,113.6406 146.3188,113.5156 146.2563,113.1094 C146.1625,112.7031 145.9906,112.4844 145.5063,112.2031 C145.0375,111.9531 144.4281,111.7969 143.85,111.7969 C142.1156,111.7969 140.8656,113.1094 140.8656,114.8906 L140.8656,115.9844 C140.8656,117.6875 142.1625,118.7813 144.2094,118.7813 C144.975,118.7813 145.6625,118.6563 146.0844,118.3906 C146.2719,118.2969 146.2719,118.2969 146.725,117.8125 C146.9125,117.625 147.1156,117.5469 147.3344,117.5469 C147.8031,117.5469 148.1938,117.9375 148.1938,118.3906 C148.1938,118.7813 147.8656,119.2344 147.2875,119.6406 C146.5375,120.1875 145.3813,120.4844 144.1625,120.4844 C141.2719,120.4844 139.1625,118.5938 139.1625,116.0156 L139.1625,114.8906 C139.1625,112.1719 141.1625,110.0938 143.7875,110.0938 C144.6625,110.0938 145.2563,110.2344 146.1938,110.6719 Z "/><text fill="#000000" font-family="sans-serif" font-size="12" lengthAdjust="spacingAndGlyphs" textLength="120" x="162.15" y="119.1543">imageRemapVisitor</text><line style="stroke: #A80036; stroke-width: 1.5;" x1="110.5" x2="303.5" y1="131" y2="131"/><ellipse cx="120.5" cy="142.9023" fill="none" rx="3" ry="3" style="stroke: #038048; stroke-width: 1.0;"/><text fill="#000000" font-family="sans-serif" font-size="11" lengthAdjust="spacingAndGlyphs" textLength="64" x="129.5" y="145.2104">visitorBase</text><ellipse cx="120.5" cy="155.707" fill="none" rx="3" ry="3" style="stroke: #038048; stroke-width: 1.0;"/><text fill="#000000" font-family="sans-serif" font-size="11" lengthAdjust="spacingAndGlyphs" textLength="169" x="129.5" y="158.0151">mapper ImageRemapFunction</text><line style="stroke: #A80036; stroke-width: 1.5;" x1="110.5" x2="303.5" y1="164.6094" y2="164.6094"/><!--class pkg.kubemanifest.visitorBase--><rect fill="#FEFECE" filter="url(#fsznv5qojbwuq)" height="48" id="pkg.kubemanifest.visitorBase" style="stroke: #A80036; stroke-width: 1.5;" width="100" x="227" y="245.5"/><ellipse cx="242" cy="261.5" fill="#ADD1B2" rx="11" ry="11" style="stroke: #A80036; stroke-width: 1.0;"/><path d="M244.3438,257.1719 L244.5156,257.25 C244.7344,256.9375 244.9375,256.8438 245.2344,256.8438 C245.5313,256.8438 245.8125,256.9844 245.9688,257.25 C246.0625,257.4063 246.0781,257.5313 246.0781,257.9688 L246.0781,259.3906 C246.0781,259.8125 246.0469,260 245.9375,260.1563 C245.7656,260.375 245.5,260.5156 245.2344,260.5156 C245.0156,260.5156 244.7813,260.4063 244.6406,260.2656 C244.5,260.1406 244.4688,260.0156 244.4063,259.6094 C244.3125,259.2031 244.1406,258.9844 243.6563,258.7031 C243.1875,258.4531 242.5781,258.2969 242,258.2969 C240.2656,258.2969 239.0156,259.6094 239.0156,261.3906 L239.0156,262.4844 C239.0156,264.1875 240.3125,265.2813 242.3594,265.2813 C243.125,265.2813 243.8125,265.1563 244.2344,264.8906 C244.4219,264.7969 244.4219,264.7969 244.875,264.3125 C245.0625,264.125 245.2656,264.0469 245.4844,264.0469 C245.9531,264.0469 246.3438,264.4375 246.3438,264.8906 C246.3438,265.2813 246.0156,265.7344 245.4375,266.1406 C244.6875,266.6875 243.5313,266.9844 242.3125,266.9844 C239.4219,266.9844 237.3125,265.0938 237.3125,262.5156 L237.3125,261.3906 C237.3125,258.6719 239.3125,256.5938 241.9375,256.5938 C242.8125,256.5938 243.4063,256.7344 244.3438,257.1719 Z "/><text fill="#000000" font-family="sans-serif" font-size="12" lengthAdjust="spacingAndGlyphs" textLength="68" x="256" y="265.6543">visitorBase</text><line style="stroke: #A80036; stroke-width: 1.5;" x1="228" x2="326" y1="277.5" y2="277.5"/><line style="stroke: #A80036; stroke-width: 1.5;" x1="228" x2="326" y1="285.5" y2="285.5"/><polygon fill="#FBFB77" filter="url(#fsznv5qojbwuq)" points="6,8,6,33.1328,408,33.1328,408,18,398,8,6,8" style="stroke: #A80036; stroke-width: 1.0;"/><polygon fill="#FBFB77" points="6,8,6,33.1328,203,33.1328,207,98.779,211,33.1328,408,33.1328,408,18,398,8,6,8" style="stroke: #A80036; stroke-width: 1.0;"/><line style="stroke: #A80036; stroke-width: 1.0;" x1="398" x2="398" y1="8" y2="18"/><line style="stroke: #A80036; stroke-width: 1.0;" x1="408" x2="398" y1="18" y2="18"/><text fill="#000000" font-family="sans-serif" font-size="13" lengthAdjust="spacingAndGlyphs" textLength="381" x="12" y="25.0669">type ImageRemapFunction func(image string) (string, error)</text><!--link pkg.assets.AssetBuilder to pkg.assets.ContainerAsset--><path d="M463.93,469.386 C442.892,486.464 419.827,505.187 400.44,520.925 " fill="none" id="pkg.assets.AssetBuilder-pkg.assets.ContainerAsset" style="stroke: #A80036; stroke-width: 1.0; stroke-dasharray: 7.0,7.0;"/><polygon fill="#FFFFFF" points="474.071,461.154,466.8916,461.8298,464.7542,468.7169,471.9336,468.041,474.071,461.154" style="stroke: #A80036; stroke-width: 1.0;"/><!--link pkg.assets.AssetBuilder to pkg.assets.FileAsset--><path d="M537.962,474.026 C541.374,489.721 545.005,506.423 548.108,520.697 " fill="none" id="pkg.assets.AssetBuilder-pkg.assets.FileAsset" style="stroke: #A80036; stroke-width: 1.0; stroke-dasharray: 7.0,7.0;"/><polygon fill="#FFFFFF" points="535.164,461.154,532.5298,467.8668,537.7131,472.8801,540.3473,466.1674,535.164,461.154" style="stroke: #A80036; stroke-width: 1.0;"/><!--link pkg.assets.AssetBuilder to pkg.apis.kops.Assets--><path d="M651.817,418 C666.193,418 680.57,418 694.947,418 " fill="none" id="pkg.assets.AssetBuilder-pkg.apis.kops.Assets" style="stroke: #A80036; stroke-width: 1.0; stroke-dasharray: 7.0,7.0;"/><polygon fill="#FFFFFF" points="638.613,418,644.613,422,650.613,418,644.613,414,638.613,418" style="stroke: #A80036; stroke-width: 1.0;"/><!--link pkg.kubemanifest.Manifest to pkg.assets.AssetBuilder--><path d="M526,305.32 C526,326.188 526,352.86 526,374.906 " fill="none" id="pkg.kubemanifest.Manifest-pkg.assets.AssetBuilder" style="stroke: #A80036; stroke-width: 1.0; stroke-dasharray: 7.0,7.0;"/><polygon fill="#A80036" points="526,300.146,522,309.146,526,305.146,530,309.146,526,300.146" style="stroke: #A80036; stroke-width: 1.0;"/><!--link pkg.kubemanifest.Visitor to pkg.kubemanifest.Manifest--><path d="M526,184.389 C526,202.531 526,222.701 526,238.74 " fill="none" id="pkg.kubemanifest.Visitor-pkg.kubemanifest.Manifest" style="stroke: #A80036; stroke-width: 1.0; stroke-dasharray: 7.0,7.0;"/><polygon fill="#A80036" points="526,179.331,522,188.331,526,184.331,530,188.331,526,179.331" style="stroke: #A80036; stroke-width: 1.0;"/><!--link pkg.kubemanifest.imageRemapVisitor to pkg.kubemanifest.visitorBase--><path d="M232.553,185.002 C243.47,205.512 255.714,228.512 264.582,245.172 " fill="none" id="pkg.kubemanifest.imageRemapVisitor-pkg.kubemanifest.visitorBase" style="stroke: #A80036; stroke-width: 1.0; stroke-dasharray: 7.0,7.0;"/><polygon fill="#FFFFFF" points="226.313,173.281,225.6021,180.457,231.9526,183.8732,232.6635,176.6972,226.313,173.281" style="stroke: #A80036; stroke-width: 1.0;"/><!--link pkg.kubemanifest.Visitor to pkg.kubemanifest.visitorBase--><path d="M428.272,188.611 C391.105,208.24 350.597,229.633 320.86,245.337 " fill="none" id="pkg.kubemanifest.Visitor-pkg.kubemanifest.visitorBase" style="stroke: #A80036; stroke-width: 1.0; stroke-dasharray: 7.0,7.0;"/><polygon fill="none" points="425.233,182.3,446.187,179.15,431.771,194.68,425.233,182.3" style="stroke: #A80036; stroke-width: 1.0;"/><!--
@startuml
class pkg.assets.AssetBuilder {
  +ContainerAssets []*ContainerAsset
  +FileAssets []*FileAsset
  +AssetsLocation *kops.Assets
}
pkg.assets.AssetBuilder o.. pkg.assets.ContainerAsset
pkg.assets.AssetBuilder o.. pkg.assets.FileAsset
'pkg.assets.FileAsset ..o pkg.assets.AssetBuilder
'pkg.assets.ContainerAsset ..o pkg.assets.AssetBuilder
pkg.assets.AssetBuilder o. pkg.apis.kops.Assets
pkg.kubemanifest.Manifest <.. pkg.assets.AssetBuilder

class pkg.assets.ContainerAsset {
  +DockerImage string
  +CanonicalLocation string
}
class pkg.assets.FileAsset {
  +File string
  +CanonicalLocation string
}

class pkg.apis.kops.Assets {
  +ContainerRegistry *string
  +FileRepository *string
}

class pkg.kubemanifest.Manifest {
  +data map[string]interface{}
}
pkg.kubemanifest.Visitor <.. pkg.kubemanifest.Manifest

interface pkg.kubemanifest.Visitor {
  VisitBool(path []string, v bool, mutator func(bool)) error
  VisitString(path []string, v string, mutator func(string)) error
  VisitFloat64(path []string, v float64, mutator func(float64)) error
}

class pkg.kubemanifest.imageRemapVisitor {
  +visitorBase
  +mapper ImageRemapFunction
}
pkg.kubemanifest.imageRemapVisitor o.. pkg.kubemanifest.visitorBase
note top of pkg.kubemanifest.imageRemapVisitor
type ImageRemapFunction func(image string) (string, error)
end note

class pkg.kubemanifest.visitorBase {
}
pkg.kubemanifest.Visitor <|.. pkg.kubemanifest.visitorBase
@enduml

PlantUML version 1.2017.19beta12(Unknown compile time)
(GPL source distribution)
Java Runtime: Java(TM) SE Runtime Environment
JVM: Java HotSpot(TM) 64-Bit Server VM
Java Version: 1.7.0_25-b15
Operating System: Linux
Default Encoding: UTF-8
Language: en
Country: US
--></g></svg>