<?xml version="1.0" encoding="UTF-8" standalone="no"?><svg xmlns="http://www.w3.org/2000/svg" xmlns:xlink="http://www.w3.org/1999/xlink" contentScriptType="application/ecmascript" contentStyleType="text/css" height="448px" preserveAspectRatio="none" style="width:970px;height:448px;" version="1.1" viewBox="0 0 970 448" width="970px" zoomAndPan="magnify"><defs><filter height="300%" id="f1qe1a2npvuzxv" width="300%" x="-1" y="-1"><feGaussianBlur result="blurOut" stdDeviation="2.0"/><feColorMatrix in="blurOut" result="blurOut2" type="matrix" values="0 0 0 0 0 0 0 0 0 0 0 0 0 0 0 0 0 0 .4 0"/><feOffset dx="4.0" dy="4.0" in="blurOut2" result="blurOut3"/><feBlend in="SourceGraphic" in2="blurOut3" mode="normal"/></filter></defs><g><!--class TreeWalker--><rect fill="#FEFECE" filter="url(#f1qe1a2npvuzxv)" height="99.2188" id="TreeWalker" style="stroke: #A80036; stroke-width: 1.5;" width="202" x="57.5" y="154"/><ellipse cx="119.25" cy="170" fill="#ADD1B2" rx="11" ry="11" style="stroke: #A80036; stroke-width: 1.0;"/><path d="M121.5938,165.6719 L121.7656,165.75 C121.9844,165.4375 122.1875,165.3438 122.4844,165.3438 C122.7813,165.3438 123.0625,165.4844 123.2188,165.75 C123.3125,165.9063 123.3281,166.0313 123.3281,166.4688 L123.3281,167.8906 C123.3281,168.3125 123.2969,168.5 123.1875,168.6563 C123.0156,168.875 122.75,169.0156 122.4844,169.0156 C122.2656,169.0156 122.0313,168.9063 121.8906,168.7656 C121.75,168.6406 121.7188,168.5156 121.6563,168.1094 C121.5625,167.7031 121.3906,167.4844 120.9063,167.2031 C120.4375,166.9531 119.8281,166.7969 119.25,166.7969 C117.5156,166.7969 116.2656,168.1094 116.2656,169.8906 L116.2656,170.9844 C116.2656,172.6875 117.5625,173.7813 119.6094,173.7813 C120.375,173.7813 121.0625,173.6563 121.4844,173.3906 C121.6719,173.2969 121.6719,173.2969 122.125,172.8125 C122.3125,172.625 122.5156,172.5469 122.7344,172.5469 C123.2031,172.5469 123.5938,172.9375 123.5938,173.3906 C123.5938,173.7813 123.2656,174.2344 122.6875,174.6406 C121.9375,175.1875 120.7813,175.4844 119.5625,175.4844 C116.6719,175.4844 114.5625,173.5938 114.5625,171.0156 L114.5625,169.8906 C114.5625,167.1719 116.5625,165.0938 119.1875,165.0938 C120.0625,165.0938 120.6563,165.2344 121.5938,165.6719 Z "/><text fill="#000000" font-family="sans-serif" font-size="12" lengthAdjust="spacingAndGlyphs" textLength="70" x="139.75" y="174.1543">TreeWalker</text><line style="stroke: #A80036; stroke-width: 1.5;" x1="58.5" x2="258.5" y1="186" y2="186"/><ellipse cx="68.5" cy="197.9023" fill="none" rx="3" ry="3" style="stroke: #038048; stroke-width: 1.0;"/><text fill="#000000" font-family="sans-serif" font-size="11" lengthAdjust="spacingAndGlyphs" textLength="164" x="77.5" y="200.2104">Contexts map[string]Handler</text><ellipse cx="68.5" cy="210.707" fill="none" rx="3" ry="3" style="stroke: #038048; stroke-width: 1.0;"/><text fill="#000000" font-family="sans-serif" font-size="11" lengthAdjust="spacingAndGlyphs" textLength="176" x="77.5" y="213.0151">Extensions map[string]Handler</text><ellipse cx="68.5" cy="223.5117" fill="none" rx="3" ry="3" style="stroke: #038048; stroke-width: 1.0;"/><text fill="#000000" font-family="sans-serif" font-size="11" lengthAdjust="spacingAndGlyphs" textLength="132" x="77.5" y="225.8198">DefaultHandler Handler</text><ellipse cx="68.5" cy="236.3164" fill="none" rx="3" ry="3" style="stroke: #038048; stroke-width: 1.0;"/><text fill="#000000" font-family="sans-serif" font-size="11" lengthAdjust="spacingAndGlyphs" textLength="95" x="77.5" y="238.6245">Tags sets.String</text><line style="stroke: #A80036; stroke-width: 1.5;" x1="58.5" x2="258.5" y1="245.2188" y2="245.2188"/><polygon fill="#FBFB77" filter="url(#f1qe1a2npvuzxv)" points="6,38.5,6,63.6328,311,63.6328,311,48.5,301,38.5,6,38.5" style="stroke: #A80036; stroke-width: 1.0;"/><polygon fill="#FBFB77" points="6,38.5,6,63.6328,154.5,63.6328,158.5,153.799,162.5,63.6328,311,63.6328,311,48.5,301,38.5,6,38.5" style="stroke: #A80036; stroke-width: 1.0;"/><line style="stroke: #A80036; stroke-width: 1.0;" x1="301" x2="301" y1="38.5" y2="48.5"/><line style="stroke: #A80036; stroke-width: 1.0;" x1="311" x2="301" y1="48.5" y2="48.5"/><text fill="#000000" font-family="sans-serif" font-size="13" lengthAdjust="spacingAndGlyphs" textLength="284" x="12" y="55.5669">type Handler func(item *TreeWalkItem) error</text><!--class TreeWalkItem--><rect fill="#FEFECE" filter="url(#f1qe1a2npvuzxv)" height="124.8281" id="TreeWalkItem" style="stroke: #A80036; stroke-width: 1.5;" width="132" x="92.5" y="313"/><ellipse cx="114.7" cy="329" fill="#ADD1B2" rx="11" ry="11" style="stroke: #A80036; stroke-width: 1.0;"/><path d="M117.0438,324.6719 L117.2156,324.75 C117.4344,324.4375 117.6375,324.3438 117.9344,324.3438 C118.2313,324.3438 118.5125,324.4844 118.6688,324.75 C118.7625,324.9063 118.7781,325.0313 118.7781,325.4688 L118.7781,326.8906 C118.7781,327.3125 118.7469,327.5 118.6375,327.6563 C118.4656,327.875 118.2,328.0156 117.9344,328.0156 C117.7156,328.0156 117.4813,327.9063 117.3406,327.7656 C117.2,327.6406 117.1688,327.5156 117.1063,327.1094 C117.0125,326.7031 116.8406,326.4844 116.3563,326.2031 C115.8875,325.9531 115.2781,325.7969 114.7,325.7969 C112.9656,325.7969 111.7156,327.1094 111.7156,328.8906 L111.7156,329.9844 C111.7156,331.6875 113.0125,332.7813 115.0594,332.7813 C115.825,332.7813 116.5125,332.6563 116.9344,332.3906 C117.1219,332.2969 117.1219,332.2969 117.575,331.8125 C117.7625,331.625 117.9656,331.5469 118.1844,331.5469 C118.6531,331.5469 119.0438,331.9375 119.0438,332.3906 C119.0438,332.7813 118.7156,333.2344 118.1375,333.6406 C117.3875,334.1875 116.2313,334.4844 115.0125,334.4844 C112.1219,334.4844 110.0125,332.5938 110.0125,330.0156 L110.0125,328.8906 C110.0125,326.1719 112.0125,324.0938 114.6375,324.0938 C115.5125,324.0938 116.1063,324.2344 117.0438,324.6719 Z "/><text fill="#000000" font-family="sans-serif" font-size="12" lengthAdjust="spacingAndGlyphs" textLength="84" x="130.3" y="333.1543">TreeWalkItem</text><line style="stroke: #A80036; stroke-width: 1.5;" x1="93.5" x2="223.5" y1="345" y2="345"/><ellipse cx="103.5" cy="356.9023" fill="none" rx="3" ry="3" style="stroke: #038048; stroke-width: 1.0;"/><text fill="#000000" font-family="sans-serif" font-size="11" lengthAdjust="spacingAndGlyphs" textLength="80" x="112.5" y="359.2104">Context string</text><ellipse cx="103.5" cy="369.707" fill="none" rx="3" ry="3" style="stroke: #038048; stroke-width: 1.0;"/><text fill="#000000" font-family="sans-serif" font-size="11" lengthAdjust="spacingAndGlyphs" textLength="70" x="112.5" y="372.0151">Name string</text><ellipse cx="103.5" cy="382.5117" fill="none" rx="3" ry="3" style="stroke: #038048; stroke-width: 1.0;"/><text fill="#000000" font-family="sans-serif" font-size="11" lengthAdjust="spacingAndGlyphs" textLength="75" x="112.5" y="384.8198">Path vfs.Path</text><ellipse cx="103.5" cy="395.3164" fill="none" rx="3" ry="3" style="stroke: #038048; stroke-width: 1.0;"/><text fill="#000000" font-family="sans-serif" font-size="11" lengthAdjust="spacingAndGlyphs" textLength="106" x="112.5" y="397.6245">RelativePath string</text><ellipse cx="103.5" cy="408.1211" fill="none" rx="3" ry="3" style="stroke: #038048; stroke-width: 1.0;"/><text fill="#000000" font-family="sans-serif" font-size="11" lengthAdjust="spacingAndGlyphs" textLength="64" x="112.5" y="410.4292">Meta string</text><ellipse cx="103.5" cy="420.9258" fill="none" rx="3" ry="3" style="stroke: #038048; stroke-width: 1.0;"/><text fill="#000000" font-family="sans-serif" font-size="11" lengthAdjust="spacingAndGlyphs" textLength="73" x="112.5" y="423.2339">Tags []string</text><line style="stroke: #A80036; stroke-width: 1.5;" x1="93.5" x2="223.5" y1="429.8281" y2="429.8281"/><!--class OptionsBuilder--><rect fill="#FEFECE" filter="url(#f1qe1a2npvuzxv)" height="60.8047" id="OptionsBuilder" style="stroke: #A80036; stroke-width: 1.5;" width="235" x="296" y="173"/><ellipse cx="364.75" cy="189" fill="#B4A7E5" rx="11" ry="11" style="stroke: #A80036; stroke-width: 1.0;"/><path d="M365.7031,185.7813 L365.7031,192.2969 L367.4219,192.2969 C367.875,192.2969 368.0156,192.3281 368.1875,192.4531 C368.4219,192.625 368.5313,192.875 368.5313,193.1563 C368.5313,193.7188 368.1719,194 367.4219,194 L362.2813,194 C361.875,194 361.6719,193.9531 361.5156,193.8281 C361.2969,193.6719 361.1563,193.4063 361.1563,193.1563 C361.1563,192.8594 361.3125,192.5781 361.5625,192.4219 C361.7188,192.3125 361.8438,192.2969 362.2813,192.2969 L364,192.2969 L364,185.7813 L362.2813,185.7813 C361.8594,185.7813 361.6719,185.75 361.5156,185.6406 C361.2969,185.4688 361.1563,185.2188 361.1563,184.9375 C361.1563,184.6563 361.3125,184.3594 361.5625,184.2031 C361.7188,184.1094 361.8438,184.0938 362.2813,184.0938 L367.4219,184.0938 C367.875,184.0938 368.0156,184.125 368.1875,184.2344 C368.4219,184.4063 368.5313,184.6719 368.5313,184.9375 C368.5313,185.2344 368.3906,185.5156 368.125,185.6719 C368,185.75 367.8125,185.7813 367.4219,185.7813 Z "/><text fill="#000000" font-family="sans-serif" font-size="12" font-style="italic" lengthAdjust="spacingAndGlyphs" textLength="89" x="385.25" y="193.1543">OptionsBuilder</text><line style="stroke: #A80036; stroke-width: 1.5;" x1="297" x2="530" y1="205" y2="205"/><line style="stroke: #A80036; stroke-width: 1.5;" x1="297" x2="530" y1="213" y2="213"/><text fill="#000000" font-family="sans-serif" font-size="11" lengthAdjust="spacingAndGlyphs" textLength="223" x="302" y="227.2104">BuildOptions(options interface{}) error</text><!--class OptionsLoader--><rect fill="#FEFECE" filter="url(#f1qe1a2npvuzxv)" height="86.4141" id="OptionsLoader" style="stroke: #A80036; stroke-width: 1.5;" width="240" x="435.5" y="8"/><ellipse cx="505.75" cy="24" fill="#ADD1B2" rx="11" ry="11" style="stroke: #A80036; stroke-width: 1.0;"/><path d="M508.0938,19.6719 L508.2656,19.75 C508.4844,19.4375 508.6875,19.3438 508.9844,19.3438 C509.2813,19.3438 509.5625,19.4844 509.7188,19.75 C509.8125,19.9063 509.8281,20.0313 509.8281,20.4688 L509.8281,21.8906 C509.8281,22.3125 509.7969,22.5 509.6875,22.6563 C509.5156,22.875 509.25,23.0156 508.9844,23.0156 C508.7656,23.0156 508.5313,22.9063 508.3906,22.7656 C508.25,22.6406 508.2188,22.5156 508.1563,22.1094 C508.0625,21.7031 507.8906,21.4844 507.4063,21.2031 C506.9375,20.9531 506.3281,20.7969 505.75,20.7969 C504.0156,20.7969 502.7656,22.1094 502.7656,23.8906 L502.7656,24.9844 C502.7656,26.6875 504.0625,27.7813 506.1094,27.7813 C506.875,27.7813 507.5625,27.6563 507.9844,27.3906 C508.1719,27.2969 508.1719,27.2969 508.625,26.8125 C508.8125,26.625 509.0156,26.5469 509.2344,26.5469 C509.7031,26.5469 510.0938,26.9375 510.0938,27.3906 C510.0938,27.7813 509.7656,28.2344 509.1875,28.6406 C508.4375,29.1875 507.2813,29.4844 506.0625,29.4844 C503.1719,29.4844 501.0625,27.5938 501.0625,25.0156 L501.0625,23.8906 C501.0625,21.1719 503.0625,19.0938 505.6875,19.0938 C506.5625,19.0938 507.1563,19.2344 508.0938,19.6719 Z "/><text fill="#000000" font-family="sans-serif" font-size="12" lengthAdjust="spacingAndGlyphs" textLength="91" x="526.25" y="28.1543">OptionsLoader</text><line style="stroke: #A80036; stroke-width: 1.5;" x1="436.5" x2="674.5" y1="40" y2="40"/><ellipse cx="446.5" cy="51.9023" fill="none" rx="3" ry="3" style="stroke: #038048; stroke-width: 1.0;"/><text fill="#000000" font-family="sans-serif" font-size="11" lengthAdjust="spacingAndGlyphs" textLength="178" x="455.5" y="54.2104">templates OptionsTemplateList</text><ellipse cx="446.5" cy="64.707" fill="none" rx="3" ry="3" style="stroke: #038048; stroke-width: 1.0;"/><text fill="#000000" font-family="sans-serif" font-size="11" lengthAdjust="spacingAndGlyphs" textLength="214" x="455.5" y="67.0151">TemplateFunctions template.FuncMap</text><ellipse cx="446.5" cy="77.5117" fill="none" rx="3" ry="3" style="stroke: #038048; stroke-width: 1.0;"/><text fill="#000000" font-family="sans-serif" font-size="11" lengthAdjust="spacingAndGlyphs" textLength="143" x="455.5" y="79.8198">Builders []OptionsBuilder</text><line style="stroke: #A80036; stroke-width: 1.5;" x1="436.5" x2="674.5" y1="86.4141" y2="86.4141"/><!--class OptionsTemplateList--><rect fill="#FEFECE" filter="url(#f1qe1a2npvuzxv)" height="48" id="OptionsTemplateList" style="stroke: #A80036; stroke-width: 1.5;" width="159" x="566" y="179.5"/><ellipse cx="581" cy="195.5" fill="#ADD1B2" rx="11" ry="11" style="stroke: #A80036; stroke-width: 1.0;"/><path d="M583.3438,191.1719 L583.5156,191.25 C583.7344,190.9375 583.9375,190.8438 584.2344,190.8438 C584.5313,190.8438 584.8125,190.9844 584.9688,191.25 C585.0625,191.4063 585.0781,191.5313 585.0781,191.9688 L585.0781,193.3906 C585.0781,193.8125 585.0469,194 584.9375,194.1563 C584.7656,194.375 584.5,194.5156 584.2344,194.5156 C584.0156,194.5156 583.7813,194.4063 583.6406,194.2656 C583.5,194.1406 583.4688,194.0156 583.4063,193.6094 C583.3125,193.2031 583.1406,192.9844 582.6563,192.7031 C582.1875,192.4531 581.5781,192.2969 581,192.2969 C579.2656,192.2969 578.0156,193.6094 578.0156,195.3906 L578.0156,196.4844 C578.0156,198.1875 579.3125,199.2813 581.3594,199.2813 C582.125,199.2813 582.8125,199.1563 583.2344,198.8906 C583.4219,198.7969 583.4219,198.7969 583.875,198.3125 C584.0625,198.125 584.2656,198.0469 584.4844,198.0469 C584.9531,198.0469 585.3438,198.4375 585.3438,198.8906 C585.3438,199.2813 585.0156,199.7344 584.4375,200.1406 C583.6875,200.6875 582.5313,200.9844 581.3125,200.9844 C578.4219,200.9844 576.3125,199.0938 576.3125,196.5156 L576.3125,195.3906 C576.3125,192.6719 578.3125,190.5938 580.9375,190.5938 C581.8125,190.5938 582.4063,190.7344 583.3438,191.1719 Z "/><text fill="#000000" font-family="sans-serif" font-size="12" lengthAdjust="spacingAndGlyphs" textLength="127" x="595" y="199.6543">OptionsTemplateList</text><line style="stroke: #A80036; stroke-width: 1.5;" x1="567" x2="724" y1="211.5" y2="211.5"/><line style="stroke: #A80036; stroke-width: 1.5;" x1="567" x2="724" y1="219.5" y2="219.5"/><!--class OptionsTemplate--><rect fill="#FEFECE" filter="url(#f1qe1a2npvuzxv)" height="86.4141" id="OptionsTemplate" style="stroke: #A80036; stroke-width: 1.5;" width="196" x="403.5" y="332.5"/><ellipse cx="444.6" cy="348.5" fill="#ADD1B2" rx="11" ry="11" style="stroke: #A80036; stroke-width: 1.0;"/><path d="M446.9438,344.1719 L447.1156,344.25 C447.3344,343.9375 447.5375,343.8438 447.8344,343.8438 C448.1313,343.8438 448.4125,343.9844 448.5688,344.25 C448.6625,344.4063 448.6781,344.5313 448.6781,344.9688 L448.6781,346.3906 C448.6781,346.8125 448.6469,347 448.5375,347.1563 C448.3656,347.375 448.1,347.5156 447.8344,347.5156 C447.6156,347.5156 447.3813,347.4063 447.2406,347.2656 C447.1,347.1406 447.0688,347.0156 447.0063,346.6094 C446.9125,346.2031 446.7406,345.9844 446.2563,345.7031 C445.7875,345.4531 445.1781,345.2969 444.6,345.2969 C442.8656,345.2969 441.6156,346.6094 441.6156,348.3906 L441.6156,349.4844 C441.6156,351.1875 442.9125,352.2813 444.9594,352.2813 C445.725,352.2813 446.4125,352.1563 446.8344,351.8906 C447.0219,351.7969 447.0219,351.7969 447.475,351.3125 C447.6625,351.125 447.8656,351.0469 448.0844,351.0469 C448.5531,351.0469 448.9438,351.4375 448.9438,351.8906 C448.9438,352.2813 448.6156,352.7344 448.0375,353.1406 C447.2875,353.6875 446.1313,353.9844 444.9125,353.9844 C442.0219,353.9844 439.9125,352.0938 439.9125,349.5156 L439.9125,348.3906 C439.9125,345.6719 441.9125,343.5938 444.5375,343.5938 C445.4125,343.5938 446.0063,343.7344 446.9438,344.1719 Z "/><text fill="#000000" font-family="sans-serif" font-size="12" lengthAdjust="spacingAndGlyphs" textLength="106" x="464.4" y="352.6543">OptionsTemplate</text><line style="stroke: #A80036; stroke-width: 1.5;" x1="404.5" x2="598.5" y1="364.5" y2="364.5"/><ellipse cx="414.5" cy="376.4023" fill="none" rx="3" ry="3" style="stroke: #038048; stroke-width: 1.0;"/><text fill="#000000" font-family="sans-serif" font-size="11" lengthAdjust="spacingAndGlyphs" textLength="70" x="423.5" y="378.7104">Name string</text><ellipse cx="414.5" cy="389.207" fill="none" rx="3" ry="3" style="stroke: #038048; stroke-width: 1.0;"/><text fill="#000000" font-family="sans-serif" font-size="11" lengthAdjust="spacingAndGlyphs" textLength="73" x="423.5" y="391.5151">Tags []string</text><ellipse cx="414.5" cy="402.0117" fill="none" rx="3" ry="3" style="stroke: #038048; stroke-width: 1.0;"/><text fill="#000000" font-family="sans-serif" font-size="11" lengthAdjust="spacingAndGlyphs" textLength="170" x="423.5" y="404.3198">Template *template.Template</text><line style="stroke: #A80036; stroke-width: 1.5;" x1="404.5" x2="598.5" y1="410.9141" y2="410.9141"/><polygon fill="#FBFB77" filter="url(#f1qe1a2npvuzxv)" points="634.5,363,634.5,388.1328,948.5,388.1328,948.5,373,938.5,363,634.5,363" style="stroke: #A80036; stroke-width: 1.0;"/><polygon fill="#FBFB77" points="634.5,363,634.5,388.1328,948.5,388.1328,948.5,373,938.5,363,785.611,363,665.495,227.781,777.611,363,634.5,363" style="stroke: #A80036; stroke-width: 1.0;"/><line style="stroke: #A80036; stroke-width: 1.0;" x1="938.5" x2="938.5" y1="363" y2="373"/><line style="stroke: #A80036; stroke-width: 1.0;" x1="948.5" x2="938.5" y1="373" y2="373"/><text fill="#000000" font-family="sans-serif" font-size="13" lengthAdjust="spacingAndGlyphs" textLength="293" x="640.5" y="380.0669">type OptionsTemplateList []*OptionsTemplate</text><!--link TreeWalker to TreeWalkItem--><path d="M158.5,253.215 C158.5,270.165 158.5,289.485 158.5,307.646 " fill="none" id="TreeWalker-TreeWalkItem" style="stroke: #A80036; stroke-width: 1.0; stroke-dasharray: 7.0,7.0;"/><polygon fill="#A80036" points="158.5,312.734,162.5,303.734,158.5,307.734,154.5,303.734,158.5,312.734" style="stroke: #A80036; stroke-width: 1.0;"/><!--link OptionsLoader to OptionsBuilder--><path d="M506.467,103.968 C484.735,127.001 459.957,153.263 441.449,172.878 " fill="none" id="OptionsLoader-OptionsBuilder" style="stroke: #A80036; stroke-width: 1.0; stroke-dasharray: 7.0,7.0;"/><polygon fill="#FFFFFF" points="515.567,94.323,508.54,95.9421,507.3319,103.0513,514.3589,101.4322,515.567,94.323" style="stroke: #A80036; stroke-width: 1.0;"/><!--link OptionsLoader to OptionsTemplateList--><path d="M587.559,105.61 C602.633,130.817 619.825,159.565 631.541,179.157 " fill="none" id="OptionsLoader-OptionsTemplateList" style="stroke: #A80036; stroke-width: 1.0; stroke-dasharray: 7.0,7.0;"/><polygon fill="#FFFFFF" points="580.81,94.323,580.4568,101.5254,586.9694,104.6216,587.3226,97.4192,580.81,94.323" style="stroke: #A80036; stroke-width: 1.0;"/><!--link OptionsTemplateList to OptionsTemplate--><path d="M617.21,237.898 C594.333,264.905 561.984,303.095 537.304,332.231 " fill="none" id="OptionsTemplateList-OptionsTemplate" style="stroke: #A80036; stroke-width: 1.0; stroke-dasharray: 7.0,7.0;"/><polygon fill="#FFFFFF" points="625.779,227.781,618.8487,229.7739,618.0228,236.9375,624.9531,234.9447,625.779,227.781" style="stroke: #A80036; stroke-width: 1.0;"/><!--
@startuml
class TreeWalker {
  +Contexts map[string]Handler
  +Extensions map[string]Handler
  +DefaultHandler Handler
  +Tags sets.String
}
note top of TreeWalker: type Handler func(item *TreeWalkItem) error
TreeWalker ..> TreeWalkItem

class TreeWalkItem {
  +Context string
  +Name string
  +Path vfs.Path
  +RelativePath string
  +Meta string
  +Tags []string
}

interface OptionsBuilder {
  BuildOptions(options interface{}) error
}

class OptionsLoader {
  +templates OptionsTemplateList
  +TemplateFunctions template.FuncMap
  +Builders []OptionsBuilder
}
OptionsLoader o.. OptionsBuilder
OptionsLoader o.. OptionsTemplateList

class OptionsTemplate {
  +Name string
  +Tags []string
  +Template *template.Template
}
OptionsTemplateList o.. OptionsTemplate

note bottom of OptionsTemplateList:type OptionsTemplateList []*OptionsTemplate
@enduml

PlantUML version 1.2017.18(Fri Oct 06 16:56:32 UTC 2017)
(GPL source distribution)
Java Runtime: Java(TM) SE Runtime Environment
JVM: Java HotSpot(TM) 64-Bit Server VM
Java Version: 1.7.0_25-b15
Operating System: Linux
Default Encoding: UTF-8
Language: en
Country: US
--></g></svg>