<?xml version="1.0" encoding="UTF-8" standalone="no"?><svg xmlns="http://www.w3.org/2000/svg" xmlns:xlink="http://www.w3.org/1999/xlink" contentScriptType="application/ecmascript" contentStyleType="text/css" height="265px" preserveAspectRatio="none" style="width:411px;height:265px;" version="1.1" viewBox="0 0 411 265" width="411px" zoomAndPan="magnify"><defs><filter height="300%" id="fswrc9krrdred" width="300%" x="-1" y="-1"><feGaussianBlur result="blurOut" stdDeviation="2.0"/><feColorMatrix in="blurOut" result="blurOut2" type="matrix" values="0 0 0 0 0 0 0 0 0 0 0 0 0 0 0 0 0 0 .4 0"/><feOffset dx="4.0" dy="4.0" in="blurOut2" result="blurOut3"/><feBlend in="SourceGraphic" in2="blurOut3" mode="normal"/></filter></defs><g><!--class CacheMutationDetector--><rect fill="#FEFECE" filter="url(#fswrc9krrdred)" height="73.6094" id="CacheMutationDetector" style="stroke: #A80036; stroke-width: 1.5;" width="181" x="28" y="8"/><ellipse cx="43" cy="24" fill="#B4A7E5" rx="11" ry="11" style="stroke: #A80036; stroke-width: 1.0;"/><path d="M43.9531,20.7813 L43.9531,27.2969 L45.6719,27.2969 C46.125,27.2969 46.2656,27.3281 46.4375,27.4531 C46.6719,27.625 46.7813,27.875 46.7813,28.1563 C46.7813,28.7188 46.4219,29 45.6719,29 L40.5313,29 C40.125,29 39.9219,28.9531 39.7656,28.8281 C39.5469,28.6719 39.4063,28.4063 39.4063,28.1563 C39.4063,27.8594 39.5625,27.5781 39.8125,27.4219 C39.9688,27.3125 40.0938,27.2969 40.5313,27.2969 L42.25,27.2969 L42.25,20.7813 L40.5313,20.7813 C40.1094,20.7813 39.9219,20.75 39.7656,20.6406 C39.5469,20.4688 39.4063,20.2188 39.4063,19.9375 C39.4063,19.6563 39.5625,19.3594 39.8125,19.2031 C39.9688,19.1094 40.0938,19.0938 40.5313,19.0938 L45.6719,19.0938 C46.125,19.0938 46.2656,19.125 46.4375,19.2344 C46.6719,19.4063 46.7813,19.6719 46.7813,19.9375 C46.7813,20.2344 46.6406,20.5156 46.375,20.6719 C46.25,20.75 46.0625,20.7813 45.6719,20.7813 Z "/><text fill="#000000" font-family="sans-serif" font-size="12" font-style="italic" lengthAdjust="spacingAndGlyphs" textLength="149" x="57" y="28.1543">CacheMutationDetector</text><line style="stroke: #A80036; stroke-width: 1.5;" x1="29" x2="208" y1="40" y2="40"/><line style="stroke: #A80036; stroke-width: 1.5;" x1="29" x2="208" y1="48" y2="48"/><text fill="#000000" font-family="sans-serif" font-size="11" lengthAdjust="spacingAndGlyphs" textLength="150" x="34" y="62.2104">AddObject(obj interface{})</text><text fill="#000000" font-family="sans-serif" font-size="11" lengthAdjust="spacingAndGlyphs" textLength="164" x="34" y="75.0151">Run(stopCh &lt;-chan struct{})</text><!--class defaultCacheMutationDetector--><rect fill="#FEFECE" filter="url(#fswrc9krrdred)" height="112.0234" id="defaultCacheMutationDetector" style="stroke: #A80036; stroke-width: 1.5;" width="225" x="6" y="142"/><ellipse cx="21" cy="158" fill="#ADD1B2" rx="11" ry="11" style="stroke: #A80036; stroke-width: 1.0;"/><path d="M23.3438,153.6719 L23.5156,153.75 C23.7344,153.4375 23.9375,153.3438 24.2344,153.3438 C24.5313,153.3438 24.8125,153.4844 24.9688,153.75 C25.0625,153.9063 25.0781,154.0313 25.0781,154.4688 L25.0781,155.8906 C25.0781,156.3125 25.0469,156.5 24.9375,156.6563 C24.7656,156.875 24.5,157.0156 24.2344,157.0156 C24.0156,157.0156 23.7813,156.9063 23.6406,156.7656 C23.5,156.6406 23.4688,156.5156 23.4063,156.1094 C23.3125,155.7031 23.1406,155.4844 22.6563,155.2031 C22.1875,154.9531 21.5781,154.7969 21,154.7969 C19.2656,154.7969 18.0156,156.1094 18.0156,157.8906 L18.0156,158.9844 C18.0156,160.6875 19.3125,161.7813 21.3594,161.7813 C22.125,161.7813 22.8125,161.6563 23.2344,161.3906 C23.4219,161.2969 23.4219,161.2969 23.875,160.8125 C24.0625,160.625 24.2656,160.5469 24.4844,160.5469 C24.9531,160.5469 25.3438,160.9375 25.3438,161.3906 C25.3438,161.7813 25.0156,162.2344 24.4375,162.6406 C23.6875,163.1875 22.5313,163.4844 21.3125,163.4844 C18.4219,163.4844 16.3125,161.5938 16.3125,159.0156 L16.3125,157.8906 C16.3125,155.1719 18.3125,153.0938 20.9375,153.0938 C21.8125,153.0938 22.4063,153.2344 23.3438,153.6719 Z "/><text fill="#000000" font-family="sans-serif" font-size="12" lengthAdjust="spacingAndGlyphs" textLength="193" x="35" y="162.1543">defaultCacheMutationDetector</text><line style="stroke: #A80036; stroke-width: 1.5;" x1="7" x2="230" y1="174" y2="174"/><ellipse cx="17" cy="185.9023" fill="none" rx="3" ry="3" style="stroke: #038048; stroke-width: 1.0;"/><text fill="#000000" font-family="sans-serif" font-size="11" lengthAdjust="spacingAndGlyphs" textLength="77" x="26" y="188.2104">name   string</text><ellipse cx="17" cy="198.707" fill="none" rx="3" ry="3" style="stroke: #038048; stroke-width: 1.0;"/><text fill="#000000" font-family="sans-serif" font-size="11" lengthAdjust="spacingAndGlyphs" textLength="117" x="26" y="201.0151">period time.Duration</text><ellipse cx="17" cy="211.5117" fill="none" rx="3" ry="3" style="stroke: #038048; stroke-width: 1.0;"/><text fill="#000000" font-family="sans-serif" font-size="11" lengthAdjust="spacingAndGlyphs" textLength="113" x="26" y="213.8198">lock       sync.Mutex</text><ellipse cx="17" cy="224.3164" fill="none" rx="3" ry="3" style="stroke: #038048; stroke-width: 1.0;"/><text fill="#000000" font-family="sans-serif" font-size="11" lengthAdjust="spacingAndGlyphs" textLength="130" x="26" y="226.6245">cachedObjs []cacheObj</text><line style="stroke: #A80036; stroke-width: 1.5;" x1="7" x2="230" y1="233.2188" y2="233.2188"/><ellipse cx="17" cy="245.1211" fill="#84BE84" rx="3" ry="3" style="stroke: #038048; stroke-width: 1.0;"/><text fill="#000000" font-family="sans-serif" font-size="11" lengthAdjust="spacingAndGlyphs" textLength="188" x="26" y="247.4292">failureFunc func(message string)</text><!--class cacheObj--><rect fill="#FEFECE" filter="url(#fswrc9krrdred)" height="73.6094" id="cacheObj" style="stroke: #A80036; stroke-width: 1.5;" width="134" x="266.5" y="161"/><ellipse cx="301.3" cy="177" fill="#ADD1B2" rx="11" ry="11" style="stroke: #A80036; stroke-width: 1.0;"/><path d="M303.6438,172.6719 L303.8156,172.75 C304.0344,172.4375 304.2375,172.3438 304.5344,172.3438 C304.8313,172.3438 305.1125,172.4844 305.2688,172.75 C305.3625,172.9063 305.3781,173.0313 305.3781,173.4688 L305.3781,174.8906 C305.3781,175.3125 305.3469,175.5 305.2375,175.6563 C305.0656,175.875 304.8,176.0156 304.5344,176.0156 C304.3156,176.0156 304.0813,175.9063 303.9406,175.7656 C303.8,175.6406 303.7688,175.5156 303.7063,175.1094 C303.6125,174.7031 303.4406,174.4844 302.9563,174.2031 C302.4875,173.9531 301.8781,173.7969 301.3,173.7969 C299.5656,173.7969 298.3156,175.1094 298.3156,176.8906 L298.3156,177.9844 C298.3156,179.6875 299.6125,180.7813 301.6594,180.7813 C302.425,180.7813 303.1125,180.6563 303.5344,180.3906 C303.7219,180.2969 303.7219,180.2969 304.175,179.8125 C304.3625,179.625 304.5656,179.5469 304.7844,179.5469 C305.2531,179.5469 305.6438,179.9375 305.6438,180.3906 C305.6438,180.7813 305.3156,181.2344 304.7375,181.6406 C303.9875,182.1875 302.8313,182.4844 301.6125,182.4844 C298.7219,182.4844 296.6125,180.5938 296.6125,178.0156 L296.6125,176.8906 C296.6125,174.1719 298.6125,172.0938 301.2375,172.0938 C302.1125,172.0938 302.7063,172.2344 303.6438,172.6719 Z "/><text fill="#000000" font-family="sans-serif" font-size="12" lengthAdjust="spacingAndGlyphs" textLength="58" x="319.7" y="181.1543">cacheObj</text><line style="stroke: #A80036; stroke-width: 1.5;" x1="267.5" x2="399.5" y1="193" y2="193"/><ellipse cx="277.5" cy="204.9023" fill="none" rx="3" ry="3" style="stroke: #038048; stroke-width: 1.0;"/><text fill="#000000" font-family="sans-serif" font-size="11" lengthAdjust="spacingAndGlyphs" textLength="108" x="286.5" y="207.2104">cached interface{}</text><ellipse cx="277.5" cy="217.707" fill="none" rx="3" ry="3" style="stroke: #038048; stroke-width: 1.0;"/><text fill="#000000" font-family="sans-serif" font-size="11" lengthAdjust="spacingAndGlyphs" textLength="105" x="286.5" y="220.0151">copied interface{}</text><line style="stroke: #A80036; stroke-width: 1.5;" x1="267.5" x2="399.5" y1="226.6094" y2="226.6094"/><!--link CacheMutationDetector to defaultCacheMutationDetector--><path d="M118.5,102.281 C118.5,115.25 118.5,129.03 118.5,141.946 " fill="none" id="CacheMutationDetector-defaultCacheMutationDetector" style="stroke: #A80036; stroke-width: 1.0; stroke-dasharray: 7.0,7.0;"/><polygon fill="none" points="111.5,102.168,118.5,82.168,125.5,102.168,111.5,102.168" style="stroke: #A80036; stroke-width: 1.0;"/><!--link defaultCacheMutationDetector to cacheObj--><path d="M244.247,198 C251.585,198 258.922,198 266.26,198 " fill="none" id="defaultCacheMutationDetector-cacheObj" style="stroke: #A80036; stroke-width: 1.0; stroke-dasharray: 7.0,7.0;"/><polygon fill="#FFFFFF" points="231.039,198,237.039,202,243.039,198,237.039,194,231.039,198" style="stroke: #A80036; stroke-width: 1.0;"/><!--
@startuml
interface CacheMutationDetector {
  AddObject(obj interface{})
  Run(stopCh <-chan struct{})
}

class defaultCacheMutationDetector {
  +name   string
  +period time.Duration
  +lock       sync.Mutex
  +cachedObjs []cacheObj
  +failureFunc func(message string)
}
CacheMutationDetector <|.. defaultCacheMutationDetector
defaultCacheMutationDetector o. cacheObj

class cacheObj {
  +cached interface{}
  +copied interface{}
}
@enduml

PlantUML version 1.2017.16beta5(Unknown compile time)
(GPL source distribution)
Java Runtime: Java(TM) SE Runtime Environment
JVM: Java HotSpot(TM) 64-Bit Server VM
Java Version: 1.7.0_25-b15
Operating System: Linux
Default Encoding: UTF-8
Language: en
Country: US
--></g></svg>