<?xml version="1.0" encoding="UTF-8" standalone="no"?><svg xmlns="http://www.w3.org/2000/svg" xmlns:xlink="http://www.w3.org/1999/xlink" contentScriptType="application/ecmascript" contentStyleType="text/css" height="156px" preserveAspectRatio="none" style="width:523px;height:156px;" version="1.1" viewBox="0 0 523 156" width="523px" zoomAndPan="magnify"><defs><filter height="300%" id="f1qrgpofo4xlar" width="300%" x="-1" y="-1"><feGaussianBlur result="blurOut" stdDeviation="2.0"/><feColorMatrix in="blurOut" result="blurOut2" type="matrix" values="0 0 0 0 0 0 0 0 0 0 0 0 0 0 0 0 0 0 .4 0"/><feOffset dx="4.0" dy="4.0" in="blurOut2" result="blurOut3"/><feBlend in="SourceGraphic" in2="blurOut3" mode="normal"/></filter></defs><g><!--class ResourceEventHandler--><rect fill="#FEFECE" filter="url(#f1qrgpofo4xlar)" height="86.4141" id="ResourceEventHandler" style="stroke: #A80036; stroke-width: 1.5;" width="230" x="6" y="34"/><ellipse cx="46.2" cy="50" fill="#B4A7E5" rx="11" ry="11" style="stroke: #A80036; stroke-width: 1.0;"/><path d="M47.1531,46.7813 L47.1531,53.2969 L48.8719,53.2969 C49.325,53.2969 49.4656,53.3281 49.6375,53.4531 C49.8719,53.625 49.9813,53.875 49.9813,54.1563 C49.9813,54.7188 49.6219,55 48.8719,55 L43.7313,55 C43.325,55 43.1219,54.9531 42.9656,54.8281 C42.7469,54.6719 42.6063,54.4063 42.6063,54.1563 C42.6063,53.8594 42.7625,53.5781 43.0125,53.4219 C43.1688,53.3125 43.2938,53.2969 43.7313,53.2969 L45.45,53.2969 L45.45,46.7813 L43.7313,46.7813 C43.3094,46.7813 43.1219,46.75 42.9656,46.6406 C42.7469,46.4688 42.6063,46.2188 42.6063,45.9375 C42.6063,45.6563 42.7625,45.3594 43.0125,45.2031 C43.1688,45.1094 43.2938,45.0938 43.7313,45.0938 L48.8719,45.0938 C49.325,45.0938 49.4656,45.125 49.6375,45.2344 C49.8719,45.4063 49.9813,45.6719 49.9813,45.9375 C49.9813,46.2344 49.8406,46.5156 49.575,46.6719 C49.45,46.75 49.2625,46.7813 48.8719,46.7813 Z "/><text fill="#000000" font-family="sans-serif" font-size="12" font-style="italic" lengthAdjust="spacingAndGlyphs" textLength="142" x="65.8" y="54.1543">ResourceEventHandler</text><line style="stroke: #A80036; stroke-width: 1.5;" x1="7" x2="235" y1="66" y2="66"/><line style="stroke: #A80036; stroke-width: 1.5;" x1="7" x2="235" y1="74" y2="74"/><text fill="#000000" font-family="sans-serif" font-size="11" lengthAdjust="spacingAndGlyphs" textLength="130" x="12" y="88.2104">OnAdd(obj interface{})</text><text fill="#000000" font-family="sans-serif" font-size="11" lengthAdjust="spacingAndGlyphs" textLength="218" x="12" y="101.0151">OnUpdate(oldObj, newObj interface{})</text><text fill="#000000" font-family="sans-serif" font-size="11" lengthAdjust="spacingAndGlyphs" textLength="145" x="12" y="113.8198">OnDelete(obj interface{})</text><!--class processorListener--><rect fill="#FEFECE" filter="url(#f1qrgpofo4xlar)" height="137.6328" id="processorListener" style="stroke: #A80036; stroke-width: 1.5;" width="241" x="271.5" y="8"/><ellipse cx="331.25" cy="24" fill="#ADD1B2" rx="11" ry="11" style="stroke: #A80036; stroke-width: 1.0;"/><path d="M333.5938,19.6719 L333.7656,19.75 C333.9844,19.4375 334.1875,19.3438 334.4844,19.3438 C334.7813,19.3438 335.0625,19.4844 335.2188,19.75 C335.3125,19.9063 335.3281,20.0313 335.3281,20.4688 L335.3281,21.8906 C335.3281,22.3125 335.2969,22.5 335.1875,22.6563 C335.0156,22.875 334.75,23.0156 334.4844,23.0156 C334.2656,23.0156 334.0313,22.9063 333.8906,22.7656 C333.75,22.6406 333.7188,22.5156 333.6563,22.1094 C333.5625,21.7031 333.3906,21.4844 332.9063,21.2031 C332.4375,20.9531 331.8281,20.7969 331.25,20.7969 C329.5156,20.7969 328.2656,22.1094 328.2656,23.8906 L328.2656,24.9844 C328.2656,26.6875 329.5625,27.7813 331.6094,27.7813 C332.375,27.7813 333.0625,27.6563 333.4844,27.3906 C333.6719,27.2969 333.6719,27.2969 334.125,26.8125 C334.3125,26.625 334.5156,26.5469 334.7344,26.5469 C335.2031,26.5469 335.5938,26.9375 335.5938,27.3906 C335.5938,27.7813 335.2656,28.2344 334.6875,28.6406 C333.9375,29.1875 332.7813,29.4844 331.5625,29.4844 C328.6719,29.4844 326.5625,27.5938 326.5625,25.0156 L326.5625,23.8906 C326.5625,21.1719 328.5625,19.0938 331.1875,19.0938 C332.0625,19.0938 332.6563,19.2344 333.5938,19.6719 Z "/><text fill="#000000" font-family="sans-serif" font-size="12" lengthAdjust="spacingAndGlyphs" textLength="113" x="351.75" y="28.1543">processorListener</text><line style="stroke: #A80036; stroke-width: 1.5;" x1="272.5" x2="511.5" y1="40" y2="40"/><ellipse cx="282.5" cy="51.9023" fill="none" rx="3" ry="3" style="stroke: #038048; stroke-width: 1.0;"/><text fill="#000000" font-family="sans-serif" font-size="11" lengthAdjust="spacingAndGlyphs" textLength="138" x="291.5" y="54.2104">nextCh chan interface{}</text><ellipse cx="282.5" cy="64.707" fill="none" rx="3" ry="3" style="stroke: #038048; stroke-width: 1.0;"/><text fill="#000000" font-family="sans-serif" font-size="11" lengthAdjust="spacingAndGlyphs" textLength="139" x="291.5" y="67.0151">addCh  chan interface{}</text><ellipse cx="282.5" cy="77.5117" fill="none" rx="3" ry="3" style="stroke: #038048; stroke-width: 1.0;"/><text fill="#000000" font-family="sans-serif" font-size="11" lengthAdjust="spacingAndGlyphs" textLength="175" x="291.5" y="79.8198">handler ResourceEventHandler</text><ellipse cx="282.5" cy="90.3164" fill="none" rx="3" ry="3" style="stroke: #038048; stroke-width: 1.0;"/><text fill="#000000" font-family="sans-serif" font-size="11" lengthAdjust="spacingAndGlyphs" textLength="215" x="291.5" y="92.6245">requestedResyncPeriod time.Duration</text><ellipse cx="282.5" cy="103.1211" fill="none" rx="3" ry="3" style="stroke: #038048; stroke-width: 1.0;"/><text fill="#000000" font-family="sans-serif" font-size="11" lengthAdjust="spacingAndGlyphs" textLength="155" x="291.5" y="105.4292">resyncPeriod time.Duration</text><ellipse cx="282.5" cy="115.9258" fill="none" rx="3" ry="3" style="stroke: #038048; stroke-width: 1.0;"/><text fill="#000000" font-family="sans-serif" font-size="11" lengthAdjust="spacingAndGlyphs" textLength="125" x="291.5" y="118.2339">nextResync time.Time</text><ellipse cx="282.5" cy="128.7305" fill="none" rx="3" ry="3" style="stroke: #038048; stroke-width: 1.0;"/><text fill="#000000" font-family="sans-serif" font-size="11" lengthAdjust="spacingAndGlyphs" textLength="130" x="291.5" y="131.0386">resyncLock sync.Mutex</text><line style="stroke: #A80036; stroke-width: 1.5;" x1="272.5" x2="511.5" y1="137.6328" y2="137.6328"/><!--link ResourceEventHandler to processorListener--><path d="M236.122,77 C243.48,77 250.837,77 258.195,77 " fill="none" id="ResourceEventHandler-processorListener" style="stroke: #A80036; stroke-width: 1.0; stroke-dasharray: 7.0,7.0;"/><polygon fill="#FFFFFF" points="271.438,77,265.438,73,259.438,77,265.438,81,271.438,77" style="stroke: #A80036; stroke-width: 1.0;"/><!--
@startuml
interface ResourceEventHandler {
  OnAdd(obj interface{})
  OnUpdate(oldObj, newObj interface{})
  OnDelete(obj interface{})
}

class processorListener {
  +nextCh chan interface{}
  +addCh  chan interface{}
  +handler ResourceEventHandler
  +requestedResyncPeriod time.Duration
  +resyncPeriod time.Duration
  +nextResync time.Time
  +resyncLock sync.Mutex
}
processorListener o.left. ResourceEventHandler
@enduml

PlantUML version 1.2017.16beta5(Unknown compile time)
(GPL source distribution)
Java Runtime: Java(TM) SE Runtime Environment
JVM: Java HotSpot(TM) 64-Bit Server VM
Java Version: 1.7.0_25-b15
Operating System: Linux
Default Encoding: UTF-8
Language: en
Country: US
--></g></svg>