<?xml version="1.0" encoding="UTF-8" standalone="no"?><svg xmlns="http://www.w3.org/2000/svg" xmlns:xlink="http://www.w3.org/1999/xlink" contentScriptType="application/ecmascript" contentStyleType="text/css" height="251px" preserveAspectRatio="none" style="width:579px;height:251px;" version="1.1" viewBox="0 0 579 251" width="579px" zoomAndPan="magnify"><defs><filter height="300%" id="fr6fbh0vks7ga" width="300%" x="-1" y="-1"><feGaussianBlur result="blurOut" stdDeviation="2.0"/><feColorMatrix in="blurOut" result="blurOut2" type="matrix" values="0 0 0 0 0 0 0 0 0 0 0 0 0 0 0 0 0 0 .4 0"/><feOffset dx="4.0" dy="4.0" in="blurOut2" result="blurOut3"/><feBlend in="SourceGraphic" in2="blurOut3" mode="normal"/></filter></defs><g><!--class ListerWatcher--><rect fill="#FEFECE" filter="url(#fr6fbh0vks7ga)" height="99.2188" id="ListerWatcher" style="stroke: #A80036; stroke-width: 1.5;" width="209" x="6" y="8"/><ellipse cx="62.75" cy="24" fill="#B4A7E5" rx="11" ry="11" style="stroke: #A80036; stroke-width: 1.0;"/><path d="M63.7031,20.7813 L63.7031,27.2969 L65.4219,27.2969 C65.875,27.2969 66.0156,27.3281 66.1875,27.4531 C66.4219,27.625 66.5313,27.875 66.5313,28.1563 C66.5313,28.7188 66.1719,29 65.4219,29 L60.2813,29 C59.875,29 59.6719,28.9531 59.5156,28.8281 C59.2969,28.6719 59.1563,28.4063 59.1563,28.1563 C59.1563,27.8594 59.3125,27.5781 59.5625,27.4219 C59.7188,27.3125 59.8438,27.2969 60.2813,27.2969 L62,27.2969 L62,20.7813 L60.2813,20.7813 C59.8594,20.7813 59.6719,20.75 59.5156,20.6406 C59.2969,20.4688 59.1563,20.2188 59.1563,19.9375 C59.1563,19.6563 59.3125,19.3594 59.5625,19.2031 C59.7188,19.1094 59.8438,19.0938 60.2813,19.0938 L65.4219,19.0938 C65.875,19.0938 66.0156,19.125 66.1875,19.2344 C66.4219,19.4063 66.5313,19.6719 66.5313,19.9375 C66.5313,20.2344 66.3906,20.5156 66.125,20.6719 C66,20.75 65.8125,20.7813 65.4219,20.7813 Z "/><text fill="#000000" font-family="sans-serif" font-size="12" font-style="italic" lengthAdjust="spacingAndGlyphs" textLength="87" x="83.25" y="28.1543">ListerWatcher</text><line style="stroke: #A80036; stroke-width: 1.5;" x1="7" x2="214" y1="40" y2="40"/><line style="stroke: #A80036; stroke-width: 1.5;" x1="7" x2="214" y1="48" y2="48"/><text fill="#000000" font-family="sans-serif" font-size="11" lengthAdjust="spacingAndGlyphs" textLength="184" x="12" y="62.2104">List(options metav1.ListOptions)</text><text fill="#000000" font-family="sans-serif" font-size="11" lengthAdjust="spacingAndGlyphs" textLength="137" x="12" y="75.0151">..(runtime.Object, error)</text><text fill="#000000" font-family="sans-serif" font-size="11" lengthAdjust="spacingAndGlyphs" textLength="197" x="12" y="87.8198">Watch(options metav1.ListOptions)</text><text fill="#000000" font-family="sans-serif" font-size="11" lengthAdjust="spacingAndGlyphs" textLength="140" x="12" y="100.6245">..(watch.Interface, error)</text><!--class ListWatch--><rect fill="#FEFECE" filter="url(#fr6fbh0vks7ga)" height="73.6094" id="ListWatch" style="stroke: #A80036; stroke-width: 1.5;" width="148" x="36.5" y="167"/><ellipse cx="76.7" cy="183" fill="#ADD1B2" rx="11" ry="11" style="stroke: #A80036; stroke-width: 1.0;"/><path d="M79.0438,178.6719 L79.2156,178.75 C79.4344,178.4375 79.6375,178.3438 79.9344,178.3438 C80.2313,178.3438 80.5125,178.4844 80.6688,178.75 C80.7625,178.9063 80.7781,179.0313 80.7781,179.4688 L80.7781,180.8906 C80.7781,181.3125 80.7469,181.5 80.6375,181.6563 C80.4656,181.875 80.2,182.0156 79.9344,182.0156 C79.7156,182.0156 79.4813,181.9063 79.3406,181.7656 C79.2,181.6406 79.1688,181.5156 79.1063,181.1094 C79.0125,180.7031 78.8406,180.4844 78.3563,180.2031 C77.8875,179.9531 77.2781,179.7969 76.7,179.7969 C74.9656,179.7969 73.7156,181.1094 73.7156,182.8906 L73.7156,183.9844 C73.7156,185.6875 75.0125,186.7813 77.0594,186.7813 C77.825,186.7813 78.5125,186.6563 78.9344,186.3906 C79.1219,186.2969 79.1219,186.2969 79.575,185.8125 C79.7625,185.625 79.9656,185.5469 80.1844,185.5469 C80.6531,185.5469 81.0438,185.9375 81.0438,186.3906 C81.0438,186.7813 80.7156,187.2344 80.1375,187.6406 C79.3875,188.1875 78.2313,188.4844 77.0125,188.4844 C74.1219,188.4844 72.0125,186.5938 72.0125,184.0156 L72.0125,182.8906 C72.0125,180.1719 74.0125,178.0938 76.6375,178.0938 C77.5125,178.0938 78.1063,178.2344 79.0438,178.6719 Z "/><text fill="#000000" font-family="sans-serif" font-size="12" lengthAdjust="spacingAndGlyphs" textLength="60" x="96.3" y="187.1543">ListWatch</text><line style="stroke: #A80036; stroke-width: 1.5;" x1="37.5" x2="183.5" y1="199" y2="199"/><ellipse cx="47.5" cy="210.9023" fill="none" rx="3" ry="3" style="stroke: #038048; stroke-width: 1.0;"/><text fill="#000000" font-family="sans-serif" font-size="11" lengthAdjust="spacingAndGlyphs" textLength="100" x="56.5" y="213.2104">ListFunc  ListFunc</text><ellipse cx="47.5" cy="223.707" fill="none" rx="3" ry="3" style="stroke: #038048; stroke-width: 1.0;"/><text fill="#000000" font-family="sans-serif" font-size="11" lengthAdjust="spacingAndGlyphs" textLength="122" x="56.5" y="226.0151">WatchFunc WatchFunc</text><line style="stroke: #A80036; stroke-width: 1.5;" x1="37.5" x2="183.5" y1="232.6094" y2="232.6094"/><polygon fill="#FBFB77" filter="url(#fr6fbh0vks7ga)" points="219.5,168.5,219.5,239.0313,557.5,239.0313,557.5,178.5,547.5,168.5,219.5,168.5" style="stroke: #A80036; stroke-width: 1.0;"/><polygon fill="#FBFB77" points="219.5,168.5,219.5,200,184.615,204,219.5,208,219.5,239.0313,557.5,239.0313,557.5,178.5,547.5,168.5,219.5,168.5" style="stroke: #A80036; stroke-width: 1.0;"/><line style="stroke: #A80036; stroke-width: 1.0;" x1="547.5" x2="547.5" y1="168.5" y2="178.5"/><line style="stroke: #A80036; stroke-width: 1.0;" x1="557.5" x2="547.5" y1="178.5" y2="178.5"/><text fill="#000000" font-family="sans-serif" font-size="13" lengthAdjust="spacingAndGlyphs" textLength="300" x="225.5" y="185.5669">type ListFunc func(options metav1.ListOptions)</text><text fill="#000000" font-family="sans-serif" font-size="13" lengthAdjust="spacingAndGlyphs" textLength="152" x="225.5" y="200.6997">..(runtime.Object, error)</text><text fill="#000000" font-family="sans-serif" font-size="13" lengthAdjust="spacingAndGlyphs" textLength="317" x="225.5" y="215.8325">type WatchFunc func(options metav1.ListOptions)</text><text fill="#000000" font-family="sans-serif" font-size="13" lengthAdjust="spacingAndGlyphs" textLength="154" x="225.5" y="230.9653">..(watch.Interface, error)</text><!--link ListerWatcher to ListWatch--><path d="M110.5,127.313 C110.5,140.933 110.5,154.7167 110.5,166.7216 " fill="none" id="ListerWatcher-ListWatch" style="stroke: #A80036; stroke-width: 1.0; stroke-dasharray: 7.0,7.0;"/><polygon fill="none" points="103.5001,127.018,110.5,107.018,117.5,127.018,103.5001,127.018" style="stroke: #A80036; stroke-width: 1.0;"/><!--
@startuml
interface ListerWatcher {
  List(options metav1.ListOptions)
  ..(runtime.Object, error)
  Watch(options metav1.ListOptions)
  ..(watch.Interface, error)
}

class ListWatch {
  +ListFunc  ListFunc
  +WatchFunc WatchFunc
}
ListerWatcher <|.. ListWatch
note right of ListWatch
type ListFunc func(options metav1.ListOptions)
..(runtime.Object, error)
type WatchFunc func(options metav1.ListOptions)
..(watch.Interface, error)
end note
@enduml

PlantUML version 1.2017.16beta5(Unknown compile time)
(GPL source distribution)
Java Runtime: Java(TM) SE Runtime Environment
JVM: Java HotSpot(TM) 64-Bit Server VM
Java Version: 1.7.0_25-b15
Operating System: Linux
Default Encoding: UTF-8
Language: en
Country: US
--></g></svg>